<?xml version="1.0" encoding="iso-8859-1"?>
<!-- Generator: Adobe Illustrator 19.0.0, SVG Export Plug-In . SVG Version: 6.00 Build 0)  -->
<svg version="1.1" id="Capa_1" xmlns="http://www.w3.org/2000/svg" xmlns:xlink="http://www.w3.org/1999/xlink" x="0px" y="0px"
	 viewBox="0 0 489.914 489.914" style="enable-background:new 0 0 489.914 489.914;" xml:space="preserve">
<g>
	<g>
		<g>
			<path d="M446.802,136.214c-9.7-58.2-51.6-111-107.6-128.5c-36.1-11.3-74.5-8.5-111.8-2.3c-48.9,8.2-103.3,26.8-123.1,72.2
				c-10.5,24.1-11.6,51.2-11.6,77.3c0,59.8-51.6,83.9-52,95.5c-0.4,22.5,45.8,25.6,41.5,48.1c-1.9,10.1-14.8,18.6-10.1,27.6
				c2.3,4.3,7.4,5.8,10.5,9.3c8.9,10.1-5.4,24.8-4.7,38.4c0.8,17.1,22.9,23.7,40,21.4c17.1-2.3,35.7-8.2,49.7,1.9
				c21.1,12.9,22.5,71.1,20.2,92.8h107.2c1.2-62.9-0.4-175.9-7-238.8c-2.7-26.4,8.9-90.2-123.1-78c-16.3-5.5-15.5-17.1-15.9-21.7
				c-2.3-31.1,13.6-61.7,37.7-81.5c79-65.2,177.9-16.4,204.6,44.7c19.2,43.8,19.8,97.5-10.9,134.3c-15.5,17.9-36.1,30.7-56.7,42.3
				c-6.2,3.5-10.1,10.1-10.1,17.1v180.5h48.5c-7-35.3-3.9-72.2-0.4-108.3c1.4-48,26.8-69.9,36.1-80.8
				C436.302,255.014,456.502,194.014,446.802,136.214z"/>
			<path d="M216.102,132.714L216.102,132.714c4.5-1.6,7.1-6.1,6.1-11.1c-2-8.5,1.9-22.5,5.2-31.7c0.2-5.3-3.6-10.2-8.8-10.4l0,0
				c-5.5-0.5-10.2,3.6-10.8,9.1c-2.8,10.1-7,26.3-4.7,37.4C204.302,131.714,210.702,135.014,216.102,132.714z"/>
			<path d="M289.102,112.114L289.102,112.114c-4.7-1.2-9.3,1.2-11.3,5.8c-3.1,8.2-8.5,15.5-14,22.5c-3.1,4.3-2.7,10.5,1.6,13.6l0,0
				c4.3,3.5,10.5,2.7,14-1.6c6.2-8.2,12.4-17.1,16.7-27.6C298.402,119.514,294.902,113.314,289.102,112.114z"/>
			<path d="M263.002,60.714L263.002,60.714c-4.6,1.3-7.5,5.6-6.9,10.6c1.3,8.6,0.3,17.7-1,26.5c-0.6,5.2,2.8,10.5,8.1,11l0,0
				c5.4,0.9,10.5-2.8,11.4-8.3c1.4-10.2,2.3-21,0.8-32.2C274.702,62.514,268.602,58.914,263.002,60.714z"/>
			<path d="M327.802,94.914L327.802,94.914c-4.5,1.7-7,6.2-6,11.2c2.1,8.5,1.8,17.6,1.3,26.5c-0.1,5.3,3.7,10.2,9,10.3l0,0
				c5.5,0.5,10.2-3.7,10.6-9.2c0.5-10.2,0.5-21.1-1.9-32.2C339.702,95.714,333.302,92.514,327.802,94.914z"/>
			<path d="M355.502,193.614L355.502,193.614c4.7,3.9,11.6,2.7,14.8-2.3c5.9-7.1,6.6-20.2,6.6-25.2c-0.4-5.8-5.4-10.1-11.3-9.3l0,0
				c-5,0.8-8.9,5-8.5,10.5c0,3.1,0.1,10.1-3.5,13.6C350.902,184.714,352.002,190.114,355.502,193.614z"/>
			<path d="M324.102,214.614L324.102,214.614c5.4,0,9.7-4.3,10.1-9.7c0.4-8.9,0.8-17.9,1.6-26.8c0.4-5.4-3.5-10.1-8.9-10.5l0,0
				c-5.4-0.4-10.5,3.5-10.9,8.9c-0.8,9.3-1.2,18.6-1.6,28C314.402,209.914,318.602,214.614,324.102,214.614z"/>
		</g>
	</g>
</g>
</svg>
