<?xml version="1.0" standalone="no"?>
<!DOCTYPE svg PUBLIC "-//W3C//DTD SVG 20010904//EN"
 "http://www.w3.org/TR/2001/REC-SVG-20010904/DTD/svg10.dtd">
<svg version="1.0" xmlns="http://www.w3.org/2000/svg"
 width="103.000000pt" height="103.000000pt" viewBox="0 0 103.000000 103.000000"
 preserveAspectRatio="xMidYMid meet">
<metadata>
Created by potrace 1.14, written by Peter Selinger 2001-2017
</metadata>
<g transform="translate(0.000000,103.000000) scale(0.100000,-0.100000)"
fill="#000000" stroke="none">
<path d="M385 895 c-85 -18 -148 -50 -210 -107 -107 -97 -142 -235 -100 -386
23 -81 30 -74 9 8 -47 183 30 345 204 431 63 31 74 33 172 33 97 1 109 -1 160
-28 75 -39 132 -87 169 -142 34 -52 38 -66 17 -58 -8 3 -12 12 -9 20 7 20 -34
18 -45 -2 -5 -9 -12 -15 -15 -15 -21 3 -26 -1 -21 -14 8 -19 19 -19 39 1 9 9
17 15 18 13 1 -2 7 -13 14 -25 14 -26 1 -53 -19 -37 -12 10 -56 8 -67 -3 -3
-3 1 -9 9 -14 11 -7 11 -10 2 -10 -9 0 -10 -5 -4 -17 5 -10 7 -24 5 -30 -3 -7
-1 -13 4 -14 4 0 16 -2 26 -4 21 -4 22 3 0 27 -14 15 -14 18 -1 18 8 0 23 8
32 19 9 10 28 19 41 19 26 0 29 -11 26 -88 -3 -88 -53 -187 -82 -164 -8 6 -27
14 -43 18 -23 6 -27 11 -21 29 18 60 17 114 -4 155 -11 22 -25 43 -31 47 -16
10 -12 23 10 30 23 7 28 55 6 55 -38 0 -43 -52 -12 -124 9 -22 14 -41 11 -44
-10 -10 -75 27 -75 42 0 15 -25 34 -45 34 -5 0 -18 -4 -27 -9 -10 -6 -18 -5
-20 2 -2 7 -10 4 -18 -7 -14 -16 -13 -17 13 -12 19 4 27 1 27 -9 0 -7 12 -18
26 -23 34 -13 37 -13 30 8 -4 9 6 3 22 -14 16 -17 38 -37 50 -43 26 -14 28
-41 7 -81 -12 -23 -25 -31 -55 -36 -50 -8 -65 -36 -17 -34 17 1 66 1 107 1
l75 -2 -52 -49 c-89 -83 -210 -111 -373 -86 -77 11 -114 31 -181 96 -65 65
-101 78 -139 51 -19 -15 -25 -27 -24 -56 2 -41 15 -55 56 -55 31 0 42 12 33
40 -5 16 -10 18 -25 10 -36 -19 -66 10 -38 38 21 21 55 13 80 -18 13 -17 33
-43 45 -59 44 -56 158 -91 299 -93 136 -1 218 33 312 130 41 42 56 52 65 43 9
-9 8 -11 -5 -6 -13 5 -18 2 -18 -10 0 -9 6 -15 13 -12 6 2 26 -4 42 -12 33
-18 96 -14 103 7 5 15 -24 16 -33 2 -5 -8 -11 -7 -20 0 -8 7 -19 9 -26 5 -6
-4 -23 6 -38 23 -27 28 -27 31 -12 58 8 16 20 56 26 89 9 51 14 60 33 61 34 2
34 7 2 42 -34 38 -57 109 -41 125 17 17 13 36 -7 30 -13 -3 -25 4 -36 22 -91
139 -259 205 -431 170z m445 -275 c0 -5 -5 -10 -11 -10 -5 0 -7 5 -4 10 3 6 8
10 11 10 2 0 4 -4 4 -10z"/>
<path d="M935 770 c-3 -5 -17 -10 -31 -10 -13 0 -24 -4 -24 -10 0 -5 -6 -7
-12 -5 -7 3 -20 1 -28 -5 -12 -7 -12 -12 -3 -21 8 -8 16 -9 25 -2 19 15 94 34
136 33 33 0 27 17 -9 24 -42 8 -47 8 -54 -4z"/>
<path d="M582 744 c-11 -20 -4 -56 9 -48 14 9 10 -16 -5 -32 -18 -18 -14 -48
7 -52 11 -2 21 8 30 30 11 27 11 37 0 58 -7 14 -13 33 -13 43 0 22 -16 22 -28
1z"/>
<path d="M533 699 c3 -12 0 -19 -10 -19 -9 0 -13 -6 -10 -14 4 -9 0 -12 -13
-9 -15 4 -18 1 -13 -16 4 -17 2 -20 -12 -15 -15 6 -16 4 -5 -16 7 -12 7 -20 2
-16 -6 3 -13 2 -17 -3 -3 -6 4 -15 15 -21 16 -9 20 -8 20 5 0 8 5 15 10 15 6
0 10 11 10 25 0 14 6 25 13 25 16 0 47 36 47 54 0 7 -9 16 -21 19 -17 5 -20 2
-16 -14z"/>
<path d="M650 705 c-9 -11 -10 -19 -2 -27 14 -14 31 -2 29 22 -2 24 -10 25
-27 5z"/>
<path d="M704 705 c-16 -13 -17 -16 -4 -25 11 -7 18 -5 28 7 24 33 10 44 -24
18z"/>
<path d="M520 624 c0 -15 22 -44 35 -44 21 0 28 19 15 35 -12 14 -50 21 -50 9z"/>
<path d="M606 571 c-8 -12 21 -34 34 -26 8 5 8 11 -1 21 -13 16 -25 18 -33 5z"/>
<path d="M436 541 c-16 -11 -35 -17 -42 -14 -10 4 -14 -4 -14 -26 0 -31 13
-41 26 -19 4 6 2 14 -4 16 -22 7 -12 17 19 18 32 1 53 16 48 33 -3 7 -15 3
-33 -8z"/>
<path d="M774 548 c-10 -16 12 -31 35 -23 12 3 19 10 16 15 -8 13 -44 19 -51
8z"/>
<path d="M348 505 c-6 -14 -15 -25 -20 -25 -5 0 -7 4 -3 9 3 5 1 12 -5 16 -5
3 -10 -3 -10 -14 0 -12 -4 -21 -10 -21 -5 0 -10 -8 -10 -17 0 -15 -2 -16 -10
-3 -5 8 -12 11 -16 7 -4 -3 -1 -13 6 -22 10 -12 10 -18 0 -30 -14 -17 -30 -20
-30 -5 0 6 8 10 18 11 10 0 12 3 5 6 -7 2 -13 11 -13 18 0 8 -5 17 -12 21 -8
5 -9 2 -5 -9 8 -20 -2 -49 -13 -42 -5 3 -11 1 -15 -5 -3 -5 -2 -10 3 -10 6 0
13 -12 16 -26 5 -19 2 -30 -11 -40 -16 -12 -12 -13 32 -14 47 0 48 1 25 13
-30 15 -33 47 -5 62 39 20 47 27 37 34 -6 4 -6 15 -1 29 5 13 14 20 20 16 8
-5 7 -9 -2 -14 -10 -7 -10 -11 0 -24 7 -9 17 -13 22 -10 5 3 21 -6 35 -19 22
-21 24 -28 15 -46 -7 -11 -20 -21 -31 -21 -10 0 -22 -4 -25 -10 -4 -6 15 -10
50 -10 35 0 54 4 50 10 -3 6 -13 10 -20 10 -11 0 -12 6 -6 23 5 12 7 32 5 44
-3 17 0 21 13 16 12 -5 15 -2 10 9 -3 10 1 19 11 23 16 6 16 7 -1 16 -21 12
-40 2 -33 -17 3 -8 1 -14 -3 -14 -5 0 -11 5 -13 12 -2 6 -14 13 -26 14 -15 3
-20 0 -16 -10 3 -8 11 -13 19 -10 7 3 15 -2 18 -10 10 -26 -21 -19 -39 9 -15
22 -15 26 0 40 15 15 23 55 11 55 -3 0 -11 -11 -17 -25z"/>
<path d="M940 515 c0 -8 11 -20 25 -25 19 -7 25 -17 25 -39 0 -17 6 -31 16
-35 23 -9 26 -8 18 6 -5 7 -7 25 -6 41 2 19 -2 27 -10 25 -7 -3 -17 5 -23 16
-13 26 -45 34 -45 11z"/>
<path d="M473 506 c-10 -11 -9 -15 4 -20 18 -7 46 12 37 25 -8 13 -27 10 -41
-5z"/>
<path d="M420 490 c0 -5 4 -10 9 -10 6 0 13 5 16 10 3 6 -1 10 -9 10 -9 0 -16
-4 -16 -10z"/>
<path d="M210 430 c0 -5 5 -10 11 -10 5 0 7 5 4 10 -3 6 -8 10 -11 10 -2 0 -4
-4 -4 -10z"/>
<path d="M450 430 c0 -5 4 -10 9 -10 6 0 13 5 16 10 3 6 -1 10 -9 10 -9 0 -16
-4 -16 -10z"/>
<path d="M994 315 c3 -8 1 -15 -4 -15 -6 0 -10 -7 -10 -16 0 -9 7 -14 17 -12
22 4 27 58 5 58 -8 0 -12 -6 -8 -15z"/>
</g>
</svg>
